<?xml version="1.0" encoding="UTF-8" standalone="no"?>
<!-- Created with Inkscape (http://www.inkscape.org/) -->

<svg
   width="29mm"
   height="37mm"
   viewBox="0 0 29 37"
   version="1.1"
   id="svg1"
   xml:space="preserve"
   inkscape:version="1.3.2 (091e20e, 2023-11-25, custom)"
   sodipodi:docname="neumann-magazine.svg"
   inkscape:export-filename="neumann-magazine.png"
   inkscape:export-xdpi="600"
   inkscape:export-ydpi="600"
   xmlns:inkscape="http://www.inkscape.org/namespaces/inkscape"
   xmlns:sodipodi="http://sodipodi.sourceforge.net/DTD/sodipodi-0.dtd"
   xmlns="http://www.w3.org/2000/svg"
   xmlns:svg="http://www.w3.org/2000/svg"><sodipodi:namedview
     id="namedview1"
     pagecolor="#ffffff"
     bordercolor="#000000"
     borderopacity="0.25"
     inkscape:showpageshadow="2"
     inkscape:pageopacity="0.0"
     inkscape:pagecheckerboard="0"
     inkscape:deskcolor="#d1d1d1"
     inkscape:document-units="mm"
     inkscape:zoom="2.8970539"
     inkscape:cx="115.97989"
     inkscape:cy="31.238632"
     inkscape:window-width="2560"
     inkscape:window-height="1009"
     inkscape:window-x="-8"
     inkscape:window-y="-8"
     inkscape:window-maximized="1"
     inkscape:current-layer="layer2" /><defs
     id="defs1" /><g
     inkscape:groupmode="layer"
     id="layer2"
     inkscape:label="Layer 2"><g
       id="g9"
       transform="translate(-3.2394028,10.137454)"><path
         style="fill:none;stroke:#000000;stroke-width:0.465;stroke-linecap:round;stroke-linejoin:round;stroke-dasharray:none;stroke-opacity:1"
         d="m 15.114852,-9.566651 c 0,0 1.826568,0.0685 1.73524,2.71702 -0.09133,2.6485237 -4.475092,7.69441888 -3.561808,9.1785049 0.913284,1.484087 2.876845,2.831181 4.726246,1.141606 1.8494,-1.689576 2.420203,-2.73985302 2.420203,-2.73985302"
         id="path1" /><path
         style="fill:none;stroke:#000000;stroke-width:0.465;stroke-linecap:round;stroke-linejoin:round;stroke-dasharray:none;stroke-opacity:1"
         d="m 9.2241698,-3.8814573 c -0.01168,-1.9972897 2.8311812,-3.5161437 4.3837642,-3.2193267 1.552582,0.296817 2.100553,1.940729 2.032056,2.7855167 -0.0685,0.844787 -0.66213,2.8768442 -2.671355,2.9453412 -2.009225,0.0685 -3.7327852,-0.5142432 -3.7444652,-2.5115312 z"
         id="path2"
         sodipodi:nodetypes="zsssz" /><path
         style="fill:none;stroke:#000000;stroke-width:0.465;stroke-linecap:round;stroke-linejoin:round;stroke-dasharray:none;stroke-opacity:1"
         d="m 14.840867,-4.1554433 c 0,0 1.073109,-0.479474 1.73524,-0.456642 0.662132,0.02283 1.758073,0.159825 1.940729,0.228321"
         id="path3" /><path
         style="fill:none;stroke:#000000;stroke-width:0.465;stroke-linecap:round;stroke-linejoin:round;stroke-dasharray:none;stroke-opacity:1"
         d="m 10.548432,-6.027675 c 0,0 -1.7809042,1.4840867 -1.0731092,2.8540127 0.7077952,1.369926 1.5982472,2.19188118 2.9453412,2.21471318"
         id="path4" /><path
         style="fill:none;stroke:#000000;stroke-width:0.465;stroke-linecap:round;stroke-linejoin:round;stroke-dasharray:none;stroke-opacity:1"
         d="m 19.589945,-4.3380993 c 0.445226,-1.6096637 0.958949,-2.1918817 2.899677,-2.1005537 1.940729,0.09133 3.059502,1.30143 2.899678,2.7398517 -0.159825,1.438423 -1.095941,2.71702018 -2.534364,2.78551718 -1.438422,0.0685 -3.710217,-1.81515218 -3.264991,-3.42481518 z"
         id="path5"
         sodipodi:nodetypes="zsssz" /><path
         style="fill:none;stroke:#000000;stroke-width:0.465;stroke-linecap:round;stroke-linejoin:round;stroke-dasharray:none;stroke-opacity:1"
         d="m 19.772602,-4.794742 c 0,0 0.205489,-1.141605 2.420203,-1.027444 2.214714,0.11416 2.397371,0.388146 2.306043,0.799123 -0.09133,0.4109777 -0.616467,0.6164667 -0.616467,0.6164667"
         id="path6" /><path
         style="fill:none;stroke:#000000;stroke-width:0.465;stroke-linecap:round;stroke-linejoin:round;stroke-dasharray:none;stroke-opacity:1"
         d="m 19.818266,-3.2193273 c 0,0 1.027445,1.621079 2.717021,1.415591 1.689575,-0.205489 2.443035,-0.730628 2.648524,-1.324262"
         id="path7" /></g><g
       id="text7"
       style="font-size:7.05556px;font-family:'GenEi Antique v5';-inkscape-font-specification:'GenEi Antique v5';stroke-width:0.465;stroke-linecap:round;stroke-linejoin:round"
       aria-label="NEUMANN&#10;MAGAZINE"><path
         style="font-family:HGSoeiKakupoptai;-inkscape-font-specification:HGSoeiKakupoptai;text-align:center;text-anchor:middle"
         d="m 1.9204189,21.480884 q 0.055122,-1.901694 0.1102432,-2.921443 0.055122,-0.881945 0.2204862,-2.618274 l 0.3858509,-0.02756 q 0.4134118,-0.02756 0.5787765,0.468534 l 0.7165803,1.984376 0.2204862,-2.563153 0.9095058,-0.02756 q -0.082682,1.4056 -0.1378039,2.397788 -0.055122,1.322918 -0.082682,3.224612 l -0.9370666,0.02756 Q 3.4638227,19.965041 2.9952894,18.779928 v 2.673395 z m 3.5553409,0.02756 q 0.1653647,-2.783639 0.3858509,-5.567278 l 2.7285174,-0.137804 -0.082682,1.019749 -1.7914508,0.137804 -0.082682,1.433161 1.4607214,-0.08268 -0.055122,1.04731 -1.4331607,0.110243 -0.055122,0.826824 1.901694,-0.05512 -0.027561,1.04731 z m 3.7758271,-5.594839 0.9370661,-0.05512 -0.2756074,2.563152 -0.082682,1.157553 q -0.027561,0.551216 0.2756077,0.744141 0.275608,0.165365 0.551216,0 0.468533,-0.275608 0.496094,-1.212674 l 0.08268,-3.279733 0.881945,-0.05512 -0.05512,3.307294 q -0.02756,0.909506 -0.275608,1.488282 -0.33073,0.716581 -1.157553,0.854385 Q 9.5823162,21.591127 9.1964653,20.874547 8.975979,20.461135 8.975979,19.524069 q 0,-0.413412 0.082682,-1.4056 z m 3.2521721,5.512157 q 0.165364,-2.8112 0.413411,-5.649961 h 0.551216 q 0.248047,0.02756 0.330729,0.08268 0.110243,0.05512 0.110243,0.275607 l 0.165365,2.535592 0.799263,-2.893882 h 0.468533 q 0.413412,0 0.385851,0.68902 -0.02756,0.413412 -0.08268,1.07487 -0.137804,1.956816 -0.110243,3.886071 l -1.074871,0.02756 0.08268,-1.43316 -0.330729,0.799262 q -0.08268,0.165365 -0.275608,0.165365 -0.192925,0 -0.248047,-0.192925 l -0.192925,-0.606338 -0.05512,1.212675 z m 3.52778,0.02756 q 0.303169,-1.708768 0.551216,-2.866321 0.192925,-0.937067 0.661459,-2.700957 l 0.964627,-0.05512 q 0.330729,-0.02756 0.496094,0.192925 0.165365,0.220487 0.192925,0.68902 l 0.358291,4.685333 -0.964628,0.05512 -0.110243,-1.267796 q -0.606337,0.02756 -0.992188,0.08268 l -0.220486,1.129992 z m 1.350478,-2.149741 h 0.744142 l -0.220487,-2.370227 z m 2.177303,2.177302 q 0.05512,-1.901694 0.110243,-2.921443 0.05512,-0.881945 0.220486,-2.618274 l 0.385851,-0.02756 q 0.413412,-0.02756 0.578776,0.468534 l 0.716581,1.984376 0.220486,-2.563153 0.909506,-0.02756 q -0.08268,1.4056 -0.137804,2.397788 -0.05512,1.322918 -0.08268,3.224612 l -0.937067,0.02756 Q 21.102723,19.965041 20.63419,18.779928 v 2.673395 z m 3.527778,0 q 0.05512,-1.901694 0.110243,-2.921443 0.05512,-0.881945 0.220487,-2.618274 l 0.385851,-0.02756 q 0.413411,-0.02756 0.578776,0.468534 l 0.71658,1.984376 0.220487,-2.563153 0.909505,-0.02756 q -0.08268,1.4056 -0.137803,2.397788 -0.05512,1.322918 -0.08268,3.224612 l -0.937066,0.02756 q -0.440973,-1.460722 -0.909506,-2.645835 v 2.673395 z"
         id="path8" /><path
         style="font-family:HGSoeiKakupoptai;-inkscape-font-specification:HGSoeiKakupoptai;text-align:center;text-anchor:middle"
         d="m 0.1565289,30.383017 q 0.16536469,-2.8112 0.41341172,-5.649961 H 1.1211563 q 0.248047,0.02756 0.3307293,0.08268 0.1102432,0.05512 0.1102432,0.275608 l 0.1653647,2.535591 0.7992626,-2.893882 h 0.4685333 q 0.4134117,0 0.385851,0.68902 -0.027561,0.413412 -0.082682,1.07487 -0.1378039,1.956816 -0.1102431,3.886071 l -1.0748705,0.02756 0.082682,-1.43316 -0.3307293,0.799262 q -0.082682,0.165365 -0.2756079,0.165365 -0.1929254,0 -0.248047,-0.192925 L 1.148717,29.142781 1.0935955,30.355456 Z m 3.5277801,0.02756 Q 3.9874776,28.701809 4.2355246,27.544256 4.4284501,26.60719 4.8969833,24.8433 l 0.9646274,-0.05512 q 0.3307294,-0.02756 0.4960941,0.192925 0.1653647,0.220487 0.1929254,0.68902 l 0.3582902,4.685333 -0.9646273,0.05512 -0.1102432,-1.267796 q -0.6063372,0.02756 -0.9921881,0.08268 L 4.6213755,30.355456 Z M 5.0347873,28.260836 H 5.7789284 L 5.5584421,25.890609 Z m 5.3192307,-2.452909 q 0.05512,0.496094 -0.137804,0.937066 l -0.9921879,0.02756 Q 9.36183,26.441825 9.3893908,26.221339 9.4445123,25.835488 9.2240261,25.752805 8.8932967,25.642562 8.6452497,26.028413 q -0.2480471,0.35829 -0.3582902,0.909506 -0.2204863,0.881945 -0.1102431,1.791451 0.027561,0.303168 0.1929254,0.440972 0.1929255,0.165365 0.4409725,0.05512 0.3307294,-0.137804 0.4409726,-0.633898 l -0.5512157,0.02756 0.1653647,-1.157553 h 1.0197489 q 0.4134122,0 0.4960942,0.330729 0.05512,0.192926 0.02756,0.385851 0,0.110243 -0.02756,0.303169 -0.05512,0.606337 -0.385851,1.129992 -0.3031686,0.468533 -0.6614588,0.689019 -0.6063372,0.33073 -1.2126744,0.05512 -0.6063372,-0.275608 -0.7717019,-0.937067 -0.248047,-0.937066 -0.082682,-2.12218 0.1653647,-1.322917 0.7441411,-1.929255 0.3582901,-0.385851 0.7717019,-0.523654 0.5236548,-0.165365 0.9646273,0.05512 0.5236551,0.248047 0.6063371,0.909506 z m 0.385851,4.60265 q 0.303168,-1.708768 0.551215,-2.866321 0.192926,-0.937066 0.661459,-2.700956 l 0.964627,-0.05512 q 0.33073,-0.02756 0.496094,0.192925 0.165365,0.220487 0.192926,0.68902 l 0.35829,4.685333 -0.964627,0.05512 -0.110243,-1.267796 q -0.606338,0.02756 -0.992189,0.08268 l -0.220486,1.129992 z m 1.350478,-2.149741 h 0.744141 l -0.220486,-2.370227 z m 2.232424,-2.067058 0.110243,-1.185114 1.984376,-0.192925 q 0.385851,-0.02756 0.551216,0 0.220486,0.05512 0.330729,0.192925 0.248047,0.35829 -0.02756,0.799263 -0.468533,0.771702 -0.937066,1.515843 -0.551216,0.937066 -1.04731,1.901694 0.881945,-0.08268 1.102431,-0.137804 0.35829,-0.05512 1.04731,-0.275608 l -0.110243,1.267796 q -0.523655,0.110243 -1.157553,0.220486 -0.771702,0.137804 -1.212674,0.05512 -0.440973,-0.08268 -0.606338,-0.468533 -0.137803,-0.358291 -0.02756,-0.799263 0.08268,-0.35829 0.440972,-0.937067 0.68902,-1.157553 1.350478,-2.259984 z m 4.327043,4.271921 q 0.192925,-2.838761 0.413412,-5.64996 l 1.019749,-0.05512 q -0.137804,1.570965 -0.192926,2.756078 -0.02756,0.937067 -0.05512,2.921443 z m 2.673394,-0.02756 q 0.05512,-1.901694 0.110243,-2.921443 0.05512,-0.881945 0.220487,-2.618274 l 0.385851,-0.02756 q 0.413411,-0.02756 0.578776,0.468534 l 0.71658,1.984376 0.220487,-2.563153 0.909505,-0.02756 q -0.08268,1.4056 -0.137804,2.397788 -0.05512,1.322918 -0.08268,3.224612 l -0.937066,0.02756 q -0.440973,-1.460722 -0.909506,-2.645835 v 2.673395 z m 3.555342,0.02756 q 0.165364,-2.783639 0.385851,-5.567278 l 2.728517,-0.137804 -0.08268,1.019749 -1.791451,0.137804 -0.08268,1.433161 1.460722,-0.08268 -0.05512,1.04731 -1.43316,0.110243 -0.05512,0.826824 1.901694,-0.05512 -0.02756,1.04731 z"
         id="path9" /></g><path
       style="font-size:7.05556px;font-family:'Freestyle Script';-inkscape-font-specification:'Freestyle Script';fill:#ea4213;stroke-width:0.465;stroke-linecap:round;stroke-linejoin:round"
       d="m 10.597408,32.444681 q 0.5271,-1.136882 1.030084,-1.850017 0.341065,-0.482314 0.564996,-0.7028 0.15503,-0.155029 0.265273,-0.155029 0.04134,0 0.07235,0.02756 0.04823,0.03445 0.04823,0.09302 0,0.07579 -0.120578,0.217041 -0.761367,0.868165 -1.378039,2.080839 0.551215,-0.210151 0.768257,-0.210151 0.158474,0 0.261827,0.07924 0.106798,0.08268 0.106798,0.18948 0,0.05512 -0.0379,0.09991 -0.05168,0.06546 -0.134359,0.06546 -0.05857,0 -0.230821,-0.09646 -0.04823,-0.02412 -0.124024,-0.02412 -0.34451,0 -0.826823,0.313504 0.206705,0.09646 0.292833,0.254937 0.117133,0.223932 0.117133,0.551216 0,0.844049 -0.502984,1.781115 -0.217041,0.399632 -0.420302,0.606338 -0.217041,0.223931 -0.4444175,0.223931 -0.1722549,0 -0.2790529,-0.165365 -0.086127,-0.137804 -0.086127,-0.375515 0,-0.509875 0.385851,-1.533069 0.048231,-0.124023 0.2756079,-0.637343 0.05857,-0.127469 0.113688,-0.272163 -0.02756,0.0069 -0.05168,0.0069 -0.09302,0 -0.09302,-0.103353 0,-0.182591 0.427192,-0.465089 z m 0.117133,0.451308 q -0.192925,0.365181 -0.509874,1.178224 -0.3272843,0.830268 -0.3272843,1.288466 0,0.08957 0.044786,0.158475 0.048231,0.0689 0.113688,0.0689 0.213596,0 0.561551,-0.716581 0.392741,-0.799262 0.392741,-1.464166 0,-0.258383 -0.09991,-0.389296 -0.0379,-0.05168 -0.1757,-0.124024 z m 2.44602,-1.047309 q 0.282498,0 0.282498,0.344509 0,0.458198 -0.423747,1.160998 -0.461643,0.761367 -0.892281,0.761367 -0.199815,0 -0.292833,-0.186035 -0.04823,-0.09302 -0.04823,-0.223932 0,-0.440972 0.303168,-0.957737 0.282498,-0.478869 0.664904,-0.744141 0.223932,-0.155029 0.406522,-0.155029 z m -0.35829,1.302246 q -0.08613,-0.0689 -0.08613,-0.106798 0,-0.02756 0.110243,-0.151584 0.310059,-0.347955 0.310059,-0.561551 0,-0.02756 -0.01722,-0.05512 -0.02756,-0.05168 -0.08613,-0.05168 -0.110243,0 -0.323839,0.213596 -0.275608,0.275608 -0.420302,0.568441 -0.16881,0.334175 -0.16881,0.554661 0,0.05857 0.03101,0.103353 0.04479,0.06201 0.113688,0.06201 0.165365,0 0.354845,-0.248047 0.08268,-0.103353 0.134359,-0.213596 0.05168,-0.110243 0.04823,-0.113689 z m 1.291911,-0.213596 q 0.33762,-0.361735 0.778592,-0.706245 0.158475,-0.124023 0.33762,-0.230821 0.08957,-0.05168 0.113688,-0.05168 0.05168,0 0.103353,0.07579 0.03101,0.04134 0.03101,0.07579 0,0.06201 -0.130914,0.168809 -0.3514,0.279053 -0.3514,0.420302 0,0.07924 0.08957,0.07924 0.148139,0 0.509874,-0.244602 0.06201,-0.04134 0.103353,-0.04134 0.02756,0 0.05512,0.02756 0.03101,0.03101 0.03101,0.06546 0,0.103353 -0.289388,0.316949 -0.303169,0.227377 -0.575332,0.227377 -0.110243,0 -0.203261,-0.05857 -0.07924,-0.04823 -0.07924,-0.172255 0,-0.08613 0.07235,-0.196371 -0.272162,0.192926 -0.640788,0.661459 -0.213596,0.289388 -0.423747,0.713135 -0.07924,0.158475 -0.19637,0.158475 -0.127469,0 -0.127469,-0.120578 0,-0.117134 0.199816,-0.627008 0.296278,-0.757922 0.620117,-1.174779 0.199816,-0.258382 0.334175,-0.258382 0.04479,0 0.08268,0.02756 0.04479,0.03445 0.04479,0.08613 0,0.05168 -0.0689,0.144694 -0.01378,0.01723 -0.18259,0.230822 -0.155029,0.203261 -0.237712,0.403076 z m 4.082441,1.002524 q 0.199816,-0.261828 0.354845,-0.502984 0.08957,-0.141249 0.471979,-0.771702 l 0.292833,-0.478869 q 0.323839,-0.530545 0.430637,-0.678684 0.1757,-0.251492 0.347955,-0.251492 0.124024,0 0.124024,0.09646 0,0.06546 -0.04823,0.165365 -0.03445,0.0689 -0.192925,0.478869 -0.158475,0.416857 -0.244602,0.930176 -0.06201,0.36518 -0.06201,0.623563 0,0.07579 0.0069,0.16881 0.01034,0.08957 0.02756,0.199815 0.137804,-0.172255 0.303169,-0.496094 0.158474,-0.323839 0.489204,-1.030084 0.313503,-0.675239 0.733805,-1.402155 0.34451,-0.599447 0.823379,-1.212674 0.223931,-0.289388 0.35829,-0.289388 0.05857,0 0.106798,0.05857 0.03445,0.04134 0.03445,0.09302 0,0.0689 -0.213596,0.341065 -0.420302,0.53399 -0.802708,1.181668 -0.437527,0.751031 -1.095541,2.135961 -0.292833,0.620117 -0.447863,0.881945 -0.161919,0.268717 -0.37207,0.268717 -0.179145,0 -0.268718,-0.155029 -0.08957,-0.158475 -0.08957,-0.468533 0,-0.49954 0.165364,-1.23679 -0.161919,0.20326 -0.378961,0.575331 -0.161919,0.275608 -0.313503,0.530545 -0.220487,0.368625 -0.292834,0.496094 -0.110243,0.196371 -0.227376,0.310059 -0.08613,0.08268 -0.203261,0.08268 -0.141249,0 -0.203261,-0.120578 -0.04479,-0.08268 -0.04479,-0.203261 0,-0.819933 0.861274,-2.938668 0.420302,-1.036975 0.489204,-1.271241 0.06201,-0.227377 0.124024,-0.289389 0.08268,-0.08957 0.192925,-0.08957 0.151585,0 0.151585,0.144694 0,0.1757 -0.130914,0.53399 -0.148139,0.406522 -0.475424,1.150663 -0.223931,0.513319 -0.316949,0.768256 -0.420301,1.267796 -0.465088,1.670873 z m 4.802467,-2.418459 0.137803,-0.02411 q 0.761367,-0.144695 1.061091,-0.144695 0.217041,0 0.217041,0.1757 0,0.110244 -0.08613,0.14814 -0.05857,0.02756 -0.199815,0.03445 -0.892281,0.05512 -1.357369,0.210151 -0.18259,0.272162 -0.53399,1.016303 -0.203261,0.434083 -0.316949,0.802708 0.07924,-0.02756 0.155029,-0.05512 0.509875,-0.172255 0.751032,-0.223932 0.320394,-0.06201 0.602892,-0.06201 0.186035,0 0.275608,0.04479 0.07924,0.0379 0.07924,0.144694 0,0.106798 -0.09646,0.141249 -0.04479,0.01378 -0.213596,0.01722 -0.912951,0.04823 -1.626086,0.447863 -0.09302,0.05168 -0.158475,0.05168 -0.09646,0 -0.172254,-0.09991 -0.06546,-0.08268 -0.06546,-0.16881 0,-0.08613 0.217041,-0.633898 0.327284,-0.830269 0.89228,-1.819012 0.16881,-0.299723 0.640788,-1.009413 0.106798,-0.165365 0.206706,-0.323839 -0.137804,-0.03445 -0.137804,-0.182591 0,-0.110243 0.110243,-0.161919 0.179145,-0.08268 0.68902,-0.16192 0.761367,-0.117133 1.291912,-0.117133 0.299723,0 0.299723,0.158474 0,0.110243 -0.103353,0.186036 -0.05168,0.0379 -0.165365,0.0379 -0.0069,0 -0.07924,-0.0034 -0.05168,0 -0.113688,0 -0.248047,0 -0.71658,0.05168 -0.406522,0.04479 -0.699355,0.130914 0.03445,0.05168 0.03445,0.08268 0,0.05857 -0.16192,0.268718 l -0.165365,0.254937 q -0.354845,0.523655 -0.492648,0.785482 z m 3.279732,0.120579 q 0.323839,0.117133 0.489204,0.292833 0.282498,0.296278 0.282498,0.68902 0,0.471978 -0.285943,0.895725 -0.268718,0.389296 -0.685575,0.616672 -0.420302,0.227377 -0.864719,0.227377 -0.34451,0 -0.744141,-0.1757 -0.03101,0.09302 -0.0379,0.124023 -0.04479,0.16192 -0.141249,0.16192 -0.09991,0 -0.172255,-0.113688 -0.05168,-0.07924 -0.05168,-0.16192 0,-0.120578 0.151585,-0.506429 0.310058,-0.792373 0.544325,-1.24368 0.144694,-0.279053 0.599447,-1.061091 0.199816,-0.337619 0.575331,-0.919841 0.08957,-0.137804 0.172255,-0.279053 -0.172255,0.05512 -0.430637,0.179146 -0.220486,0.103352 -0.258382,0.103352 -0.05168,0 -0.08957,-0.05168 -0.0379,-0.05168 -0.0379,-0.120578 0,-0.106798 0.07235,-0.15503 0.130914,-0.09302 0.468533,-0.230821 0.706245,-0.285944 1.140328,-0.285944 0.36518,0 0.592557,0.182591 0.227376,0.18259 0.227376,0.458198 0,0.568441 -0.658014,0.981853 -0.396186,0.248047 -0.857829,0.392741 z m -0.516765,-0.213596 q 0.585667,-0.106798 1.102432,-0.416857 0.599447,-0.361735 0.599447,-0.720026 0,-0.165364 -0.158475,-0.258382 -0.103353,-0.06201 -0.289388,-0.06201 -0.120578,0 -0.258382,0.02756 -0.137804,0.02412 -0.292834,0.07579 0.05857,0.04479 0.05857,0.110243 0,0.08957 -0.113688,0.241157 -0.0379,0.05168 -0.137804,0.203261 -0.0379,0.06546 -0.230822,0.347955 -0.18948,0.279053 -0.279053,0.451308 z m -1.195449,2.46669 q 0.117134,0.0689 0.172255,0.08957 0.14814,0.05857 0.392741,0.05857 0.733806,0 1.174779,-0.582222 0.375515,-0.492649 0.375515,-0.968072 0,-0.323839 -0.285943,-0.51332 -0.168809,-0.110243 -0.396186,-0.110243 -0.08613,0 -0.254937,0.0379 -0.03101,0.0069 -0.06201,0.0069 -0.08268,0 -0.137804,-0.120578 -0.275608,0.420302 -0.620117,1.174778 -0.1757,0.385851 -0.358291,0.926732 z"
       id="text9"
       aria-label="for WEB" /><path
       style="font-size:2.82222px;font-family:HGSSoeiKakugothicUB;-inkscape-font-specification:HGSSoeiKakugothicUB;text-align:center;text-anchor:middle;fill:#ea4015;stroke-width:0.465;stroke-linecap:round;stroke-linejoin:round"
       d="m 3.530824,23.97052 q 0.6724821,-0.30868 1.0142353,-0.771701 0.3197046,-0.429947 0.4740448,-1.157551 l 0.407899,0.165364 q -0.2094616,0.749653 -0.5622392,1.223697 -0.3858504,0.529167 -1.0473082,0.892968 z m 2.7340257,-0.760677 q 1.1685755,-0.46302 1.7859361,-1.190624 l 0.3527775,0.286632 Q 8.0728344,22.669653 7.6649354,22.934236 V 24.35637 H 7.2349878 v -1.157551 q -0.3417532,0.220486 -0.7386279,0.396875 z m 2.8111958,-0.870919 h 1.9402765 l 0.0441,-0.03307 0.275607,0.319705 q -0.573263,0.69453 -0.926041,1.014235 l 0.253559,0.297656 -0.330729,0.264583 Q 9.9359407,23.716961 9.4729202,23.320086 L 9.7816005,23.02243 q 0.1653645,0.165365 0.3307285,0.319705 0.253559,-0.220486 0.595312,-0.617361 H 9.0760455 Z m 3.4175325,0.551215 q -0.264583,-0.23151 -0.584288,-0.451996 l 0.275608,-0.341754 q 0.275607,0.187413 0.595312,0.451997 z m -0.573264,1.036284 q 0.650434,-0.176389 1.10243,-0.485069 0.507118,-0.341754 0.87092,-0.903993 l 0.286631,0.352778 q -0.407899,0.54019 -0.915016,0.892968 -0.463021,0.319705 -1.157552,0.573263 z m 2.800172,-1.587499 h 1.940276 l 0.0441,-0.03307 0.275608,0.319705 q -0.573264,0.69453 -0.926041,1.014235 l 0.253558,0.297656 -0.330728,0.264583 Q 15.580381,23.716961 15.11736,23.320086 l 0.308681,-0.297656 q 0.165364,0.165365 0.330729,0.319705 0.253558,-0.220486 0.595312,-0.617361 h -1.631596 z m 4.354597,-0.198437 0.187413,-0.132292 0.220486,0.30868 -0.209462,0.132292 z m 0.363802,-0.0441 0.198437,-0.132291 0.209462,0.30868 -0.198438,0.132292 z m -1.907204,1.995398 q 0.363802,-0.220486 0.551215,-0.474045 0.220486,-0.297656 0.275607,-0.716579 h -0.738627 v -0.374826 h 0.7717 l 0.01103,-0.518142 0.418923,0.02205 -0.01102,0.496093 h 0.870919 q -0.03307,0.628385 -0.07717,1.190624 -0.02205,0.264583 -0.09922,0.418923 -0.110243,0.220486 -0.352777,0.220486 h -0.352778 l -0.07717,-0.374826 h 0.209462 q 0.143316,0 0.198437,-0.05512 0.03307,-0.02205 0.06615,-0.220486 0.03307,-0.198438 0.0441,-0.407899 l 0.02205,-0.396875 h -0.485069 q -0.06615,0.496093 -0.275608,0.837847 -0.242534,0.407899 -0.69453,0.661458 z m 4.343574,-1.785936 0.198437,-0.15434 0.253559,0.297656 -0.187413,0.165364 z m 0.286632,-0.23151 0.187413,-0.15434 0.253559,0.286631 -0.198438,0.165365 z m -1.124479,1.223697 q -0.46302,-0.275608 -0.672482,-0.363802 l 0.176389,-0.319705 q 0.341753,0.154341 0.683506,0.319705 z m -0.584287,0.705555 q 0.61736,-0.220486 1.047308,-0.540191 0.474045,-0.352777 0.848871,-0.903992 l 0.286632,0.330729 q -0.705555,1.003211 -1.97335,1.521353 z m 0.859895,-1.33394 Q 20.93819,22.471216 20.607461,22.338924 l 0.198437,-0.330729 q 0.275608,0.09922 0.71658,0.30868 z m 2.469442,0.220486 q -0.264583,-0.23151 -0.584288,-0.451996 l 0.275608,-0.341754 q 0.275607,0.187413 0.595312,0.451997 z m -0.573263,1.036284 q 0.650433,-0.176389 1.102429,-0.485069 0.507118,-0.341754 0.87092,-0.903993 l 0.286632,0.352778 q -0.407899,0.54019 -0.915017,0.892968 -0.46302,0.319705 -1.157551,0.573263 z"
       id="text1"
       aria-label="ノイマンマガジン" /></g></svg>
